<?xml version="1.0" encoding="UTF-8"?>
<svg xmlns="http://www.w3.org/2000/svg" xmlns:xlink="http://www.w3.org/1999/xlink" width="2000" height="1860" viewBox="1940 900 2000 1860">
<defs>
<clipPath id="clip-0">
<path clip-rule="nonzero" d="M 2228 1590 L 3860 1590 L 3860 2452 L 2228 2452 Z M 2228 1590 "/>
</clipPath>
<clipPath id="clip-1">
<path clip-rule="nonzero" d="M 3859.28125 1592.570312 C 3859.199219 1657.441406 3851.671875 1720.730469 3837.460938 1781.640625 C 3831.691406 1806.378906 3824.820312 1830.730469 3816.890625 1854.640625 C 3795.960938 1917.800781 3767.699219 1977.839844 3733.039062 2033.808594 C 3720.308594 2054.378906 3706.710938 2074.410156 3692.300781 2093.828125 C 3656.140625 2055.988281 3617.679688 2030.75 3587.25 2014.441406 C 3572.929688 2006.769531 3560.390625 2001.078125 3550.691406 1996.988281 C 3499.898438 2008.570312 3449.121094 2020.140625 3398.328125 2031.710938 C 3373.46875 2045.710938 3358.460938 2071.871094 3359.761719 2099.210938 C 3360.820312 2121.578125 3373.078125 2150.898438 3402.191406 2160.921875 C 3426.171875 2169.191406 3453.671875 2161.609375 3471.621094 2141.640625 C 3495.28125 2154.589844 3535.640625 2180.988281 3568.128906 2228.859375 L 3568.128906 2228.871094 C 3540.621094 2253.140625 3511.519531 2275.769531 3481 2296.589844 C 3474.878906 2287.660156 3469.660156 2279.21875 3465.238281 2271.539062 C 3446.851562 2272.929688 3395.78125 2279.261719 3350.121094 2319.070312 C 3319.761719 2345.53125 3304.820312 2375.441406 3297.828125 2392.601562 C 3213.101562 2425.210938 3121.859375 2445.578125 3026.371094 2451.390625 C 2686.878906 2430.628906 2397.398438 2223.878906 2268.609375 1932.761719 C 2252.601562 1896.578125 2239.070312 1859.101562 2228.25 1820.511719 C 2239.808594 1829.011719 2251.980469 1837.289062 2264.71875 1845.320312 C 2429.859375 1949.449219 2690.980469 2012.679688 2983.058594 2004.730469 C 2985.589844 2004.660156 2988.121094 2004.589844 2990.648438 2004.511719 C 3295.421875 1994.929688 3561.558594 1909.800781 3716.71875 1787.71875 C 3791.101562 1729.210938 3839.980469 1662.210938 3855.390625 1590.96875 C 3856.691406 1591.5 3857.988281 1592.03125 3859.28125 1592.570312 Z M 3859.28125 1592.570312 "/>
</clipPath>
</defs>
<!-- background + saucer removed: cup only -->
<path fill-rule="nonzero" fill="rgb(90.234375%, 90.234375%, 90.234375%)" fill-opacity="1" d="M 3737.761719 2151.28125 C 3765.261719 2193.691406 3833.359375 2298.699219 3793.691406 2390.421875 C 3792.96875 2392.078125 3792.21875 2393.730469 3791.449219 2395.351562 C 3761.558594 2457.890625 3689.738281 2491.871094 3613.339844 2502.890625 C 3613.328125 2502.898438 3613.328125 2502.898438 3613.328125 2502.898438 C 3566.199219 2509.710938 3517.320312 2507.769531 3475.46875 2498.421875 C 3383.789062 2477.941406 3324.300781 2421.5 3297.828125 2392.601562 C 3304.820312 2375.441406 3319.761719 2345.53125 3350.121094 2319.070312 C 3395.78125 2279.261719 3446.851562 2272.929688 3465.238281 2271.539062 C 3469.660156 2279.21875 3474.878906 2287.660156 3481 2296.589844 C 3497.238281 2320.308594 3519.808594 2347.5 3550.691406 2373.070312 C 3573.171875 2391.691406 3595.171875 2405.398438 3614.328125 2415.488281 C 3616.820312 2389.851562 3621.511719 2307.511719 3568.128906 2228.871094 L 3568.128906 2228.859375 C 3535.640625 2180.988281 3495.28125 2154.589844 3471.621094 2141.640625 C 3453.671875 2161.609375 3426.171875 2169.191406 3402.191406 2160.921875 C 3373.078125 2150.898438 3360.820312 2121.578125 3359.761719 2099.210938 C 3358.460938 2071.871094 3373.46875 2045.710938 3398.328125 2031.710938 C 3449.121094 2020.140625 3499.898438 2008.570312 3550.691406 1996.988281 C 3581.011719 2009.789062 3639.128906 2038.191406 3692.300781 2093.828125 C 3708.191406 2110.449219 3723.628906 2129.488281 3737.761719 2151.28125 "/>
<path fill-rule="nonzero" fill="rgb(100%, 100%, 100%)" fill-opacity="1" d="M 3026.371094 2451.390625 C 3015.988281 2452.03125 3005.550781 2452.488281 2995.070312 2452.769531 C 2620.78125 2462.96875 2294.5 2247.019531 2155.46875 1932.761719 C 2119.851562 1852.261719 2096.519531 1765.308594 2087.820312 1674.058594 L 2087.820312 1674.050781 C 2091.660156 1672.019531 2095.53125 1670 2099.421875 1667.988281 C 2122.511719 1723.890625 2166.941406 1775.421875 2228.25 1820.511719 C 2239.070312 1859.101562 2252.601562 1896.578125 2268.609375 1932.761719 C 2397.398438 2223.878906 2686.878906 2430.628906 3026.371094 2451.390625 "/>
<g clip-path="url(#clip-0)">
<g clip-path="url(#clip-1)">
<path fill-rule="nonzero" fill="rgb(82%, 82%, 82%)" d="M 2228.25 1590.96875 L 2228.25 2451.390625 L 3859.28125 2451.390625 L 3859.28125 1590.96875 Z M 2228.25 1590.96875 "/>
</g>
</g>
<path fill-rule="nonzero" fill="rgb(94.921875%, 94.921875%, 94.921875%)" fill-opacity="1" d="M 3860.539062 1536.28125 C 3860.839844 1547.449219 3860.320312 1558.550781 3858.988281 1569.558594 C 3858.128906 1576.738281 3856.929688 1583.871094 3855.390625 1590.96875 C 3839.980469 1662.210938 3791.101562 1729.210938 3716.71875 1787.71875 C 3560.269531 1910.808594 3291 1996.339844 2983.058594 2004.730469 C 2690.980469 2012.679688 2429.859375 1949.449219 2264.71875 1845.320312 C 2184.460938 1794.710938 2126.871094 1734.441406 2099.421875 1667.988281 C 2092.300781 1650.789062 2087.210938 1633.171875 2084.269531 1615.199219 C 2083.46875 1610.328125 2082.828125 1605.421875 2082.351562 1600.488281 C 2081.839844 1595.269531 2081.511719 1590.019531 2081.371094 1584.75 C 2080.878906 1566.640625 2082.558594 1548.71875 2086.308594 1531.070312 C 2133.230469 1309.53125 2503.820312 1128.699219 2958.859375 1116.308594 C 3412 1103.96875 3790.621094 1262.960938 3851.941406 1480.21875 C 3855.609375 1493.191406 3858.140625 1506.371094 3859.480469 1519.730469 C 3860.039062 1525.21875 3860.390625 1530.730469 3860.539062 1536.28125 Z M 2133.929688 1577.441406 C 2134.871094 1600.128906 2139.941406 1622.25 2148.800781 1643.648438 C 2223.769531 1824.699219 2570.21875 1954.261719 2982.390625 1943.03125 C 3414.449219 1931.261719 3765.960938 1768.960938 3805.929688 1571.730469 C 3808.769531 1557.710938 3810.039062 1543.511719 3809.648438 1529.179688 C 3809.398438 1519.949219 3808.460938 1510.808594 3806.859375 1501.78125 C 3771.140625 1299.449219 3404.070312 1148.898438 2961.089844 1160.96875 C 2498.328125 1173.578125 2127.960938 1358.859375 2133.839844 1574.820312 C 2133.859375 1575.691406 2133.890625 1576.570312 2133.929688 1577.441406 "/>
<path fill-rule="nonzero" fill="rgb(70.117188%, 70.117188%, 70.117188%)" fill-opacity="1" d="M 3568.128906 2228.871094 C 3621.511719 2307.511719 3616.820312 2389.851562 3614.328125 2415.488281 C 3595.171875 2405.398438 3573.171875 2391.691406 3550.691406 2373.070312 C 3519.808594 2347.5 3497.238281 2320.308594 3481 2296.589844 C 3511.519531 2275.769531 3540.621094 2253.140625 3568.128906 2228.871094 "/>
<path fill-rule="nonzero" fill="rgb(94.921875%, 94.921875%, 94.921875%)" fill-opacity="1" d="M 3475.46875 2498.421875 C 3517.320312 2507.769531 3566.199219 2509.710938 3613.328125 2502.898438 C 3452.691406 2577.671875 3247.191406 2627.148438 3021.710938 2637.011719 C 2492.898438 2660.140625 2054.488281 2456.601562 2042.488281 2182.390625 C 2038.609375 2093.609375 2079.898438 2008.308594 2155.46875 1932.761719 C 2294.5 2247.019531 2620.78125 2462.96875 2995.070312 2452.769531 C 3101.929688 2449.859375 3203.878906 2428.761719 3297.828125 2392.601562 C 3324.300781 2421.5 3383.789062 2477.941406 3475.46875 2498.421875 "/>
<path fill-rule="nonzero" fill="rgb(89.84375%, 79.6875%, 72.851562%)" fill-opacity="1" d="M 2905.648438 1853.460938 L 2905.648438 1833.648438 C 2905.648438 1832.261719 2904.589844 1831.101562 2903.210938 1830.980469 C 2875.800781 1828.550781 2625.320312 1801.730469 2531.078125 1624.929688 C 2431.320312 1437.78125 2627.070312 1339.910156 2627.070312 1339.910156 L 2663.371094 1322.96875 C 2666.199219 1321.648438 2668.628906 1325.421875 2666.25 1327.449219 C 2592.679688 1389.949219 2334.148438 1648.519531 2890.589844 1796.96875 C 2890.589844 1796.96875 2590.320312 1717.730469 2566.839844 1563.898438 C 2547.328125 1436.078125 2629.101562 1389.421875 2657.328125 1377.300781 C 2659.871094 1376.210938 2662.199219 1379.191406 2660.519531 1381.390625 C 2625.699219 1427.019531 2467.949219 1665.261719 2902.46875 1744.019531 C 2904.121094 1744.320312 2905.648438 1743.050781 2905.648438 1741.378906 L 2905.648438 1729.839844 C 2905.648438 1728.570312 2904.769531 1727.480469 2903.53125 1727.210938 C 2873.429688 1720.828125 2534.609375 1644.058594 2661.378906 1449.988281 C 2662.941406 1447.601562 2666.648438 1448.929688 2666.308594 1451.761719 C 2661.878906 1488.671875 2665.25 1600.761719 2853.820312 1657.261719 C 2857.03125 1658.21875 2858.769531 1653.640625 2855.71875 1652.238281 C 2787.980469 1621.140625 2657.121094 1544.390625 2734.910156 1441.890625 C 2736.21875 1440.160156 2738.949219 1440.609375 2739.621094 1442.679688 C 2747.378906 1466.738281 2786.839844 1572.898438 2889.789062 1613.679688 C 2891.589844 1614.390625 2893.578125 1613.011719 2893.480469 1611.078125 C 2893.171875 1605.121094 2886.96875 1590.289062 2851.058594 1555.949219 C 2799.941406 1507.050781 2789.550781 1484.328125 2788.96875 1443.5 C 2788.949219 1441.628906 2790.769531 1440.289062 2792.539062 1440.898438 C 2810.199219 1447.03125 2887.699219 1474.480469 2905.230469 1490.679688 C 2905.480469 1490.910156 2905.769531 1491.070312 2906.089844 1491.179688 C 2908.070312 1491.871094 2915.929688 1497.039062 2915.730469 1536.101562 C 2915.71875 1539.238281 2920.199219 1539.859375 2921.011719 1536.820312 C 2927.289062 1513.398438 2933.980469 1475.179688 2915.738281 1461.628906 C 2889.609375 1442.21875 2705.828125 1401.121094 2829.601562 1260.699219 C 2831.648438 1258.371094 2835.351562 1260.808594 2834.039062 1263.621094 C 2816.328125 1301.621094 2789.488281 1389.351562 2901.878906 1417.078125 C 2901.878906 1417.078125 2923.691406 1421.929688 2935.230469 1430.640625 C 2937.960938 1432.710938 2941.199219 1428.941406 2938.71875 1426.558594 C 2936 1423.960938 2931.449219 1421.160156 2924 1418.488281 C 2900.511719 1410.070312 2743.570312 1318.300781 2888.460938 1256.800781 C 2891.460938 1255.53125 2893.730469 1259.691406 2891.011719 1261.5 C 2852.339844 1287.371094 2801.261719 1341.210938 2936.609375 1392.839844 C 2937.46875 1393.171875 2938.46875 1393.058594 2939.199219 1392.480469 C 2940.691406 1391.308594 2941.558594 1388.53125 2932.628906 1382.570312 C 2919.449219 1373.789062 2809.03125 1317.320312 2896.859375 1272.148438 C 2964.5 1237.359375 2970.378906 1291.480469 2969.511719 1318.21875 C 2969.421875 1321.050781 2973.191406 1322.089844 2974.550781 1319.601562 C 2985.640625 1299.21875 3010.441406 1260.191406 3038.660156 1258.339844 C 3076.929688 1255.828125 3097.640625 1259.601562 3102.660156 1289.089844 C 3107.671875 1318.550781 3058.828125 1374.941406 3023.078125 1381.300781 C 3023.011719 1381.308594 3022.941406 1381.328125 3022.878906 1381.339844 L 3016.140625 1383.230469 C 3012.78125 1384.160156 3014.039062 1389.21875 3017.441406 1388.441406 C 3029.480469 1385.648438 3047.289062 1378.769531 3072.539062 1363.121094 C 3112.03125 1338.660156 3117.160156 1304.800781 3116.46875 1285.839844 C 3116.359375 1282.878906 3120.488281 1281.96875 3121.621094 1284.71875 C 3132.78125 1311.769531 3141.460938 1374.429688 3011.871094 1415.769531 C 3011.738281 1415.808594 3011.621094 1415.851562 3011.511719 1415.910156 C 3009.78125 1416.769531 2996.109375 1423.75 3017.328125 1420.21875 C 3039.371094 1416.539062 3163.878906 1378.519531 3141.019531 1287.480469 C 3140.398438 1285.019531 3143.230469 1283.148438 3145.238281 1284.691406 C 3161.621094 1297.179688 3198.320312 1338.890625 3099.660156 1416.03125 C 3099.570312 1416.101562 3099.46875 1416.171875 3099.378906 1416.230469 C 3096.339844 1418.050781 3045.761719 1448.148438 3007.460938 1451.878906 C 3007.351562 1451.890625 3007.25 1451.898438 3007.140625 1451.890625 C 3004.519531 1451.871094 2968.789062 1452.171875 2958.589844 1483.898438 C 2951.320312 1506.5 2948.160156 1519.789062 2946.878906 1525.910156 C 2946.480469 1527.839844 2948.199219 1529.53125 2950.121094 1529.078125 C 2973.730469 1523.539062 3094.230469 1494.839844 3106.109375 1482.960938 C 3119.28125 1469.78125 3139.050781 1498.960938 3123.988281 1515.898438 C 3108.929688 1532.839844 3031.761719 1574.25 2980 1582.71875 C 2938.441406 1589.519531 2933.890625 1610.269531 2933.710938 1618.191406 C 2933.671875 1619.851562 2935.160156 1621.128906 2936.800781 1620.871094 C 2958.441406 1617.460938 3095.488281 1592.398438 3181.308594 1493.378906 C 3182.390625 1492.140625 3184.300781 1492.121094 3185.371094 1493.371094 C 3197.800781 1507.851562 3254.96875 1588.230469 3056.449219 1651.351562 C 3056.308594 1651.398438 3056.148438 1651.429688 3056 1651.449219 L 2993.269531 1660.171875 C 2989.910156 1660.628906 2990.328125 1665.621094 2993.71875 1665.511719 C 3063.121094 1663.359375 3205.140625 1648.921875 3255.101562 1568.890625 C 3256.429688 1566.761719 3259.671875 1567.378906 3260.058594 1569.871094 C 3264.628906 1599.46875 3263.691406 1714.800781 2976.589844 1732.28125 C 2975.769531 1732.328125 2975.011719 1732.75 2974.539062 1733.421875 L 2972.03125 1737.011719 C 2970.71875 1738.890625 2972.210938 1741.449219 2974.5 1741.21875 C 3022.621094 1736.371094 3353.238281 1696.738281 3321.199219 1527.199219 C 3320.621094 1524.128906 3324.910156 1522.75 3326.269531 1525.558594 C 3348.238281 1571.078125 3378.011719 1699.128906 3077.28125 1779.410156 C 3073.949219 1780.300781 3075.070312 1785.269531 3078.460938 1784.640625 C 3189.371094 1764.011719 3421.53125 1694.199219 3351.261719 1476.429688 C 3350.328125 1473.539062 3354.171875 1471.558594 3355.96875 1474.011719 C 3397.808594 1530.769531 3533.25 1766 2960.550781 1829.078125 C 2959.390625 1829.210938 2958.429688 1830.078125 2958.210938 1831.21875 L 2952.019531 1862.398438 C 2951.738281 1863.871094 2950.308594 1864.808594 2948.851562 1864.511719 L 2907.789062 1856.089844 C 2906.539062 1855.828125 2905.648438 1854.730469 2905.648438 1853.460938 "/>
</svg>
